HIERARCHY
ROOT hip
{
  OFFSET 0 0 0
  CHANNELS 6 Xposition Yposition Zposition Zrotation Yrotation Xrotation
  JOINT abdomen
  {
    OFFSET 0 20.6881 -0.73152
    CHANNELS 3 Zrotation Xrotation Yrotation
    JOINT chest
    {
      OFFSET 0 11.7043 -0.48768
      CHANNELS 3 Zrotation Xrotation Yrotation
      JOINT neck
      {
        OFFSET 0 22.1894 -2.19456
        CHANNELS 3 Zrotation Xrotation Yrotation
        JOINT head
        {
          OFFSET -0.24384 7.07133 1.2192
          CHANNELS 3 Zrotation Xrotation Yrotation
          JOINT leftEye
          {
            OFFSET 4.14528 8.04674 8.04672
            CHANNELS 3 Zrotation Xrotation Yrotation
            End Site
            {
              OFFSET 1 0 0
            }
          }
          JOINT rightEye
          {
            OFFSET -3.6576 8.04674 8.04672
            CHANNELS 3 Zrotation Xrotation Yrotation
            End Site
            {
              OFFSET 1 0 0
            }
          }
        }
      }
      JOINT rCollar
      {
        OFFSET -2.68224 19.2634 -4.8768
        CHANNELS 3 Zrotation Xrotation Yrotation
        JOINT rShldr
        {
          OFFSET -8.77824 -1.95073 1.46304
          CHANNELS 3 Zrotation Xrotation Yrotation
          JOINT rForeArm
          {
            OFFSET -28.1742 -1.7115 0.48768
            CHANNELS 3 Zrotation Xrotation Yrotation
            JOINT rHand
            {
              OFFSET -22.5879 0.773209 7.07136
              CHANNELS 3 Zrotation Xrotation Yrotation
              JOINT rThumb1
              {
                OFFSET -1.2192 -0.487915 3.41376
                CHANNELS 3 Zrotation Xrotation Yrotation
                JOINT rThumb2
                {
                  OFFSET -3.37035 -0.52449 3.41376
                  CHANNELS 3 Zrotation Xrotation Yrotation
                  End Site
                  {
                    OFFSET -1.78271 -1.18214 1.43049
                  }
                }
              }
              JOINT rIndex1
              {
                OFFSET -7.75947 0.938293 5.60832
                CHANNELS 3 Zrotation Xrotation Yrotation
                JOINT rIndex2
                {
                  OFFSET -2.54057 -0.884171 1.56538
                  CHANNELS 3 Zrotation Xrotation Yrotation
                  End Site
                  {
                    OFFSET -1.62519 -0.234802 1.16502
                  }
                }
              }
              JOINT rMid1
              {
                OFFSET -8.24714 1.18213 3.41376
                CHANNELS 3 Zrotation Xrotation Yrotation
                JOINT rMid2
                {
                  OFFSET -3.10165 -0.590103 1.0647
                  CHANNELS 3 Zrotation Xrotation Yrotation
                  End Site
                  {
                    OFFSET -2.48547 -0.328903 0.83742
                  }
                }
              }
              JOINT rRing1
              {
                OFFSET -8.82822 0.546677 1.51678
                CHANNELS 3 Zrotation Xrotation Yrotation
                JOINT rRing2
                {
                  OFFSET -2.60934 -0.819778 -0.0198488
                  CHANNELS 3 Zrotation Xrotation Yrotation
                  End Site
                  {
                    OFFSET -2.33842 -0.294052 0.168128
                  }
                }
              }
              JOINT rPinky1
              {
                OFFSET -8.27202 -0.0477905 -0.4584
                CHANNELS 3 Zrotation Xrotation Yrotation
                JOINT rPinky2
                {
                  OFFSET -1.82734 -0.647385 -0.700984
                  CHANNELS 3 Zrotation Xrotation Yrotation
                  End Site
                  {
                    OFFSET -1.69225 -0.51767 -0.607171
                  }
                }
              }
            }
          }
        }
      }
      JOINT lCollar
      {
        OFFSET 2.68224 19.2634 -4.8768
        CHANNELS 3 Zrotation Xrotation Yrotation
        JOINT lShldr
        {
          OFFSET 8.77824 -1.95073 1.46304
          CHANNELS 3 Zrotation Xrotation Yrotation
          JOINT lForeArm
          {
            OFFSET 28.1742 -1.7115 0.48768
            CHANNELS 3 Zrotation Xrotation Yrotation
            JOINT lHand
            {
              OFFSET 22.5879 0.773209 7.07136
              CHANNELS 3 Zrotation Xrotation Yrotation
              JOINT lThumb1
              {
                OFFSET 1.2192 -0.487915 3.41376
                CHANNELS 3 Zrotation Xrotation Yrotation
                JOINT lThumb2
                {
                  OFFSET 3.37035 -0.52449 3.41376
                  CHANNELS 3 Zrotation Xrotation Yrotation
                  End Site
                  {
                    OFFSET 1.78271 -1.18214 1.43049
                  }
                }
              }
              JOINT lIndex1
              {
                OFFSET 7.75947 0.938293 5.60832
                CHANNELS 3 Zrotation Xrotation Yrotation
                JOINT lIndex2
                {
                  OFFSET 2.54057 -0.884171 1.56538
                  CHANNELS 3 Zrotation Xrotation Yrotation
                  End Site
                  {
                    OFFSET 1.62519 -0.234802 1.16502
                  }
                }
              }
              JOINT lMid1
              {
                OFFSET 8.24714 1.18213 3.41376
                CHANNELS 3 Zrotation Xrotation Yrotation
                JOINT lMid2
                {
                  OFFSET 3.10165 -0.590103 1.0647
                  CHANNELS 3 Zrotation Xrotation Yrotation
                  End Site
                  {
                    OFFSET 2.48547 -0.328903 0.83742
                  }
                }
              }
              JOINT lRing1
              {
                OFFSET 8.82822 0.546677 1.51678
                CHANNELS 3 Zrotation Xrotation Yrotation
                JOINT lRing2
                {
                  OFFSET 2.60934 -0.819778 -0.0198488
                  CHANNELS 3 Zrotation Xrotation Yrotation
                  End Site
                  {
                    OFFSET 2.33842 -0.294052 0.168128
                  }
                }
              }
              JOINT lPinky1
              {
                OFFSET 8.27202 -0.0477905 -0.4584
                CHANNELS 3 Zrotation Xrotation Yrotation
                JOINT lPinky2
                {
                  OFFSET 1.82734 -0.647385 -0.700984
                  CHANNELS 3 Zrotation Xrotation Yrotation
                  End Site
                  {
                    OFFSET 1.69225 -0.51767 -0.607171
                  }
                }
              }
            }
          }
        }
      }
    }
  }
  JOINT rButtock
  {
    OFFSET -8.77824 4.35084 1.2192
    CHANNELS 3 Zrotation Xrotation Yrotation
    JOINT rThigh
    {
      OFFSET 0 -1.70687 -2.19456
      CHANNELS 3 Zrotation Xrotation Yrotation
      JOINT rShin
      {
        OFFSET 0 -36.8199 0.73152
        CHANNELS 3 Zrotation Xrotation Yrotation
        JOINT rFoot
        {
          OFFSET 0.73152 -45.1104 -5.12064
          CHANNELS 3 Zrotation Xrotation Yrotation
          End Site
          {
            OFFSET -1.1221 -3.69964 12.103
          }
        }
      }
    }
  }
  JOINT lButtock
  {
    OFFSET 8.77824 4.35084 1.2192
    CHANNELS 3 Zrotation Xrotation Yrotation
    JOINT lThigh
    {
      OFFSET 0 -1.70687 -2.19456
      CHANNELS 3 Zrotation Xrotation Yrotation
      JOINT lShin
      {
        OFFSET 0 -36.8199 0.73152
        CHANNELS 3 Zrotation Xrotation Yrotation
        JOINT lFoot
        {
          OFFSET -0.73152 -45.1104 -5.12064
          CHANNELS 3 Zrotation Xrotation Yrotation
          End Site
          {
            OFFSET 1.1221 -3.69964 12.103
          }
        }
      }
    }
  }
}
MOTION
Frames:	8
Frame Time:	0.00833333
54.8439 77.1348 134.547 -177.071 5.3612 190.765 6.77404 14.3919 -1.69248 1.37355 -12.1887 -0.122388 -2.64581 4.63422 0.320855 9.04435 -41.2389 6.6895 -0.0 0.0 0.0 -0.0 0.0 0.0 -2.80361e-14 -1.93722e-13 6.42043e-14 65.1441 -2.94543 -1.49191 -17.1011 -9.75297 32.0306 -0.00640075 3.73766 0.524726 2.23961e-09 -1.85928e-09 1.97705e-09 3.87715e-09 -3.21472e-09 3.40956e-09 2.23961e-09 -1.85928e-09 1.97704e-09 7.73091 5.47488 0.417314 2.23961e-09 -1.85928e-09 1.97706e-09 2.90554 0.965183 0.102902 2.23961e-09 -1.85928e-09 1.97705e-09 10.2786 0.731801 0.0259123 2.2396e-09 -1.85928e-09 1.97706e-09 2.22167 -0.733487 -0.20892 -2.81193e-14 -1.93711e-13 6.40428e-14 -68.7735 7.46137 2.20517 17.4184 -10.0814 -32.7108 0.0294208 4.85403 -0.683888 -2.2822e-09 -4.90768e-09 -8.78707e-10 -3.95412e-09 -8.49101e-09 -1.50676e-09 -2.2822e-09 -4.90768e-09 -8.78682e-10 -7.73091 5.47488 -0.417314 -2.28219e-09 -4.90768e-09 -8.78712e-10 -2.90554 0.965183 -0.102902 -2.2822e-09 -4.90768e-09 -8.78704e-10 -10.2786 0.731801 -0.0259123 -2.28219e-09 -4.90768e-09 -8.78713e-10 -2.22167 -0.733487 0.20892 -2.03217e-16 0.0 -3.88251e-19 11.1095 -39.7934 2.39456 -0.520491 51.2423 1.43755 -9.41167 -19.3034 -20.3818 2.03217e-16 0.0 3.88251e-19 6.36077 -42.3586 7.40559 0.690728 54.4334 -1.59751 10.2945 -22.8318 19.2937
54.8281 76.788 134.659 -177.011 5.0774 191.153 6.80894 14.651 -1.74822 1.5736 -12.7734 -0.113121 -2.59192 4.63791 0.331032 8.89912 -41.6148 6.75155 -0.0 0.0 0.0 -0.0 0.0 0.0 -3.85943e-14 -2.39973e-13 2.16829e-13 64.5266 -4.25396 -1.13946 -16.9525 -9.60407 31.7085 0.00413317 1.20956 0.169046 2.1979e-09 -9.37497e-10 2.40117e-09 3.80333e-09 -1.61654e-09 4.14882e-09 2.1979e-09 -9.37496e-10 2.40116e-09 7.73091 5.47488 0.417314 2.1979e-09 -9.37495e-10 2.40117e-09 2.90554 0.965183 0.102902 2.19791e-09 -9.37498e-10 2.40117e-09 10.2786 0.731801 0.0259123 2.19789e-09 -9.37497e-10 2.40118e-09 2.22167 -0.733487 -0.20892 -3.86769e-14 -2.39969e-13 2.16708e-13 -68.3167 8.81791 2.54178 17.772 -10.448 -33.4998 0.0271209 4.67796 -0.658943 -3.31178e-09 -6.45266e-09 -6.70267e-10 -5.7334e-09 -1.11602e-08 -1.14044e-09 -3.31179e-09 -6.45266e-09 -6.70238e-10 -7.73091 5.47488 -0.417314 -3.31178e-09 -6.45266e-09 -6.70272e-10 -2.90554 0.965183 -0.102902 -3.31179e-09 -6.45266e-09 -6.70265e-10 -10.2786 0.731801 -0.0259123 -3.31178e-09 -6.45266e-09 -6.70275e-10 -2.22167 -0.733487 0.20892 -2.03217e-16 0.0 -3.88251e-19 11.08 -41.0137 2.01176 -0.557041 52.3125 1.49901 -9.62349 -19.5299 -20.5636 2.03217e-16 0.0 3.88251e-19 6.80372 -43.7726 8.10731 0.741665 55.6048 -1.64869 10.1015 -22.9455 18.8609
54.8132 76.3888 134.784 -176.941 4.7834 191.536 6.81948 14.8023 -1.82735 1.67265 -13.0937 -0.126637 -2.44995 4.65691 0.363901 8.76586 -42.0891 6.87851 -0.0 0.0 0.0 -0.0 0.0 0.0 -4.04926e-14 -2.75119e-13 2.97432e-13 64.1216 -5.531 -0.579594 -16.8283 -9.4802 31.4416 -0.00165004 -1.1598 -0.163022 2.21518e-09 -4.04233e-10 2.5451e-09 3.83168e-09 -6.91669e-10 4.40259e-09 2.21519e-09 -4.04231e-10 2.5451e-09 7.73091 5.47488 0.417314 2.21518e-09 -4.0423e-10 2.54511e-09 2.90554 0.965183 0.102902 2.21519e-09 -4.04233e-10 2.5451e-09 10.2786 0.731801 0.0259123 2.21518e-09 -4.04233e-10 2.54511e-09 2.22167 -0.733487 -0.20892 -4.05645e-14 -2.75118e-13 2.97332e-13 -67.7745 10.0307 2.77571 18.0742 -10.7666 -34.1869 0.0245172 4.46533 -0.628847 -3.89368e-09 -7.27617e-09 -5.40863e-10 -6.73878e-09 -1.25826e-08 -9.13788e-10 -3.89369e-09 -7.27617e-09 -5.40831e-10 -7.73091 5.47488 -0.417314 -3.89368e-09 -7.27617e-09 -5.40866e-10 -2.90554 0.965183 -0.102902 -3.89369e-09 -7.27617e-09 -5.40861e-10 -10.2786 0.731801 -0.0259123 -3.89368e-09 -7.27617e-09 -5.40872e-10 -2.22167 -0.733487 0.20892 -2.03217e-16 0.0 -3.88251e-19 11.0056 -42.2107 1.60279 -0.596992 53.4287 1.56508 -9.85562 -19.7827 -20.7589 2.03217e-16 0.0 3.88251e-19 7.2558 -45.1296 8.84434 0.797304 56.7885 -1.70443 9.91158 -23.1298 18.4021
54.778 75.9525 134.915 -176.927 4.4653 191.886 6.79839 14.7656 -1.96626 1.61438 -13.0051 -0.182946 -2.14387 4.73424 0.435693 8.64998 -42.7597 7.113 -0.0 0.0 0.0 -0.0 0.0 0.0 -2.44129e-14 -2.99208e-13 2.67526e-13 64.0131 -6.74893 0.227611 -16.7503 -9.40249 31.2756 -0.0131248 -3.40243 -0.477749 2.31923e-09 -4.68152e-10 2.23775e-09 4.01043e-09 -8.01853e-10 3.87446e-09 2.31923e-09 -4.68152e-10 2.23775e-09 7.73091 5.47488 0.417314 2.31923e-09 -4.68151e-10 2.23775e-09 2.90554 0.965183 0.102902 2.31924e-09 -4.68154e-10 2.23775e-09 10.2786 0.731801 0.0259123 2.31923e-09 -4.68154e-10 2.23776e-09 2.22167 -0.733487 -0.20892 -2.4459e-14 -2.99209e-13 2.67414e-13 -67.037 11.067 2.86505 18.3316 -11.0464 -34.771 0.0218603 4.21391 -0.593308 -3.83905e-09 -7.04305e-09 -5.53839e-10 -6.64378e-09 -1.21787e-08 -9.37846e-10 -3.83905e-09 -7.04304e-09 -5.5381e-10 -7.73091 5.47488 -0.417314 -3.83905e-09 -7.04305e-09 -5.5384e-10 -2.90554 0.965183 -0.102902 -3.83905e-09 -7.04305e-09 -5.53838e-10 -10.2786 0.731801 -0.0259123 -3.83905e-09 -7.04305e-09 -5.53849e-10 -2.22167 -0.733487 0.20892 -2.03217e-16 0.0 -3.88251e-19 10.8747 -43.396 1.15268 -0.641875 54.6147 1.63805 -10.1188 -20.0679 -20.9813 2.03217e-16 0.0 3.88251e-19 7.7145 -46.4388 9.64517 0.85895 58.0008 -1.76643 9.72539 -23.4219 17.9043
54.704 75.5005 135.039 -177.044 4.1212 192.235 6.75693 14.5987 -2.14836 1.44601 -12.6383 -0.269049 -1.72669 4.8663 0.534941 8.55807 -43.5775 7.43189 -0.0 0.0 0.0 -0.0 0.0 0.0 2.70207e-15 -3.19348e-13 1.72371e-13 64.1431 -7.93967 1.22845 -16.7028 -9.35538 31.1746 -0.0343286 -5.62983 -0.792462 2.45605e-09 -8.64012e-10 1.64109e-09 4.24612e-09 -1.48749e-09 2.84554e-09 2.45606e-09 -8.64014e-10 1.64109e-09 7.73091 5.47488 0.417314 2.45606e-09 -8.64014e-10 1.64109e-09 2.90554 0.965183 0.102902 2.45606e-09 -8.64016e-10 1.6411e-09 10.2786 0.731801 0.0259123 2.45605e-09 -8.64016e-10 1.6411e-09 2.22167 -0.733487 -0.20892 2.69325e-15 -3.19348e-13 1.72222e-13 -66.1714 11.9926 2.8716 18.5665 -11.309 -35.303 0.0193607 3.95501 -0.55674 -3.39771e-09 -6.16747e-09 -6.46392e-10 -5.88016e-09 -1.06642e-08 -1.10227e-09 -3.3977e-09 -6.16746e-09 -6.46369e-10 -7.73091 5.47488 -0.417314 -3.3977e-09 -6.16747e-09 -6.46389e-10 -2.90554 0.965183 -0.102902 -3.39771e-09 -6.16747e-09 -6.46391e-10 -10.2786 0.731801 -0.0259123 -3.3977e-09 -6.16746e-09 -6.46402e-10 -2.22167 -0.733487 0.20892 -2.03217e-16 0.0 -3.88251e-19 10.6886 -44.584 0.654854 -0.693125 55.8659 1.71914 -10.4087 -20.3688 -21.2327 2.03217e-16 0.0 3.88251e-19 8.18137 -47.726 10.4874 0.927582 59.2441 -1.83514 9.52673 -23.7925 17.3575
54.6558 75.0198 135.157 -177.072 3.7903 192.603 6.70127 14.4383 -2.30375 1.25965 -12.2199 -0.349484 -1.33004 4.95892 0.63376 8.488 -44.3575 7.76824 -0.0 0.0 0.0 -0.0 0.0 0.0 2.50937e-14 -3.30095e-13 6.46182e-14 64.4155 -9.1363 2.38226 -16.6509 -9.30508 31.0621 -0.0678045 -7.68555 -1.08584 2.60365e-09 -1.32125e-09 1.01862e-09 4.50032e-09 -2.27935e-09 1.77191e-09 2.60365e-09 -1.32125e-09 1.01861e-09 7.73091 5.47488 0.417314 2.60365e-09 -1.32125e-09 1.01861e-09 2.90554 0.965183 0.102902 2.60365e-09 -1.32125e-09 1.01862e-09 10.2786 0.731801 0.0259123 2.60365e-09 -1.32125e-09 1.01863e-09 2.22167 -0.733487 -0.20892 2.51247e-14 -3.30094e-13 6.44326e-14 -65.3463 12.8338 2.83788 18.7595 -11.5282 -35.7439 0.0167096 3.67018 -0.516529 -2.80719e-09 -5.09295e-09 -7.23096e-10 -4.85868e-09 -8.8061e-09 -1.23997e-09 -2.80718e-09 -5.09294e-09 -7.23081e-10 -7.73091 5.47488 -0.417314 -2.80718e-09 -5.09294e-09 -7.23091e-10 -2.90554 0.965183 -0.102902 -2.80719e-09 -5.09294e-09 -7.23095e-10 -10.2786 0.731801 -0.0259123 -2.80718e-09 -5.09294e-09 -7.23106e-10 -2.22167 -0.733487 0.20892 -2.03217e-16 0.0 -3.88251e-19 10.4645 -45.7362 0.140312 -0.749671 57.1322 1.80567 -10.7063 -20.6832 -21.4828 2.03217e-16 0.0 3.88251e-19 8.66252 -48.9495 11.3275 1.00222 60.4799 -1.90906 9.31775 -24.1807 16.7959
54.6633 74.5266 135.253 -176.911 3.4953 192.92 6.63974 14.4209 -2.36301 1.14534 -11.9766 -0.389219 -1.08477 4.91793 0.704193 8.42688 -44.9159 8.04646 -0.0 0.0 0.0 -0.0 0.0 0.0 2.70034e-14 -3.26007e-13 -3.08116e-15 64.7335 -10.3715 3.64877 -16.5592 -9.21727 30.8621 -0.109928 -9.41334 -1.33511 2.74e-09 -1.56929e-09 6.33808e-10 4.73461e-09 -2.70818e-09 1.1097e-09 2.74001e-09 -1.56929e-09 6.33805e-10 7.73091 5.47488 0.417314 2.74001e-09 -1.5693e-09 6.33805e-10 2.90554 0.965183 0.102902 2.74001e-09 -1.5693e-09 6.33809e-10 10.2786 0.731801 0.0259123 2.74e-09 -1.5693e-09 6.33818e-10 2.22167 -0.733487 -0.20892 2.70678e-14 -3.26007e-13 -3.27995e-15 -64.733 13.6163 2.80711 18.8923 -11.6793 -36.0542 0.013709 3.34093 -0.470075 -2.30503e-09 -4.263e-09 -6.88526e-10 -3.99011e-09 -7.37126e-09 -1.18388e-09 -2.30502e-09 -4.26299e-09 -6.88517e-10 -7.73091 5.47488 -0.417314 -2.30502e-09 -4.26299e-09 -6.8852e-10 -2.90554 0.965183 -0.102902 -2.30503e-09 -4.26299e-09 -6.88526e-10 -10.2786 0.731801 -0.0259123 -2.30503e-09 -4.26299e-09 -6.88536e-10 -2.22167 -0.733487 0.20892 -2.03217e-16 0.0 -3.88251e-19 10.2252 -46.8146 -0.355938 -0.809443 58.3636 1.89404 -10.9919 -21.0092 -21.7009 2.03217e-16 0.0 3.88251e-19 9.15431 -50.0691 12.1141 1.08117 61.67 -1.986 9.10388 -24.5251 16.2547
54.6594 74.0373 135.33 -176.817 3.2211 193.156 6.57194 14.6342 -2.29399 1.1478 -12.0041 -0.37142 -1.07992 4.65278 0.727083 8.40865 -45.1296 8.23851 -0.0 0.0 0.0 -0.0 0.0 0.0 -9.18742e-15 -3.0819e-13 -7.53674e-15 65.0505 -11.7962 5.03813 -16.3985 -9.06457 30.5141 -0.148007 -10.7152 -1.52445 2.99557e-09 -1.53483e-09 6.47602e-10 5.17338e-09 -2.64546e-09 1.13897e-09 2.99557e-09 -1.53483e-09 6.47599e-10 7.73091 5.47488 0.417314 2.99557e-09 -1.53483e-09 6.47599e-10 2.90554 0.965183 0.102902 2.99557e-09 -1.53483e-09 6.47603e-10 10.2786 0.731801 0.0259123 2.99556e-09 -1.53483e-09 6.47612e-10 2.22167 -0.733487 -0.20892 -9.08932e-15 -3.08192e-13 -7.70756e-15 -64.3946 14.3835 2.76554 18.9594 -11.7548 -36.2153 0.00969209 2.87575 -0.404484 -1.95134e-09 -3.89497e-09 -4.55369e-10 -3.37858e-09 -6.73584e-09 -7.82235e-10 -1.95135e-09 -3.89497e-09 -4.55365e-10 -7.73091 5.47488 -0.417314 -1.95135e-09 -3.89497e-09 -4.55366e-10 -2.90554 0.965183 -0.102902 -1.95135e-09 -3.89497e-09 -4.55369e-10 -10.2786 0.731801 -0.0259123 -1.95134e-09 -3.89497e-09 -4.55379e-10 -2.22167 -0.733487 0.20892 -2.03217e-16 0.0 -3.88251e-19 9.97423 -47.8011 -0.822889 -0.871773 59.5541 1.98325 -11.2582 -21.3516 -21.8714 2.03217e-16 0.0 3.88251e-19 9.64381 -51.0658 12.8408 1.16428 62.8133 -2.0657 8.88986 -24.803 15.7476
